# xmcd
#
# Track frame offsets:
#	150
#	20385
#	38367
#	56412
#	80985
#	102149
#	114761
#	132463
#	152447
#	172533
#	188054
#	209043
#
# Disc length: 2966 seconds
#
# Revision: 1
# Processed by: cddbd v1.5.2PL0 Copyright (c) Steve Scherf et al.
# Submitted via: audiograbber 1.83.01
#
DISCID=8c0b940c
DTITLE=Julia Cozby - Keep On Walking
DYEAR=2019
DGENRE=Country
TTITLE0=Glenrio
TTITLE1=Keep On Walking
TTITLE2=Just Friends
TTITLE3=Baby Why
TTITLE4=Not That Kind
TTITLE5=Breaking Bad
TTITLE6=When Your Heart Decides To Run
TTITLE7=Your Resistance Is Such A Drag
TTITLE8=Carta Azul
TTITLE9=Devil and The Sea
TTITLE10=Leaving You Behind
TTITLE11=Brokedown Thunderstorm
EXTD=
EXTT0=
EXTT1=
EXTT2=
EXTT3=
EXTT4=
EXTT5=
EXTT6=
EXTT7=
EXTT8=
EXTT9=
EXTT10=
EXTT11=
PLAYORDER=
